<?xml version="1.0" encoding="UTF-8" standalone="no"?>
<svg
   xmlns:dc="http://purl.org/dc/elements/1.1/"
   xmlns:cc="http://creativecommons.org/ns#"
   xmlns:rdf="http://www.w3.org/1999/02/22-rdf-syntax-ns#"
   xmlns:svg="http://www.w3.org/2000/svg"
   xmlns="http://www.w3.org/2000/svg"
   xmlns:sodipodi="http://sodipodi.sourceforge.net/DTD/sodipodi-0.dtd"
   xmlns:inkscape="http://www.inkscape.org/namespaces/inkscape"
   inkscape:version="1.0 (4035a4fb49, 2020-05-01)"
   sodipodi:docname="HotString01.svg"
   xml:space="preserve"
   style="enable-background:new 0 0 465.072 465.072;"
   viewBox="0 0 465.072 465.072"
   y="0px"
   x="0px"
   id="Capa_1"
   version="1.1"><metadata
   id="metadata43"><rdf:RDF><cc:Work
       rdf:about=""><dc:format>image/svg+xml</dc:format><dc:type
         rdf:resource="http://purl.org/dc/dcmitype/StillImage" /><dc:title></dc:title></cc:Work></rdf:RDF></metadata><defs
   id="defs41"><inkscape:path-effect
   message="Add &lt;b&gt;&quot;Fill Between Many LPE&quot;&lt;/b&gt; to add fill."
   unifysegment="true"
   halfextreme="true"
   splitsegments="true"
   holefactor="0"
   numberdashes="2"
   lpeversion="1"
   is_visible="false"
   id="path-effect2918"
   effect="dashed_stroke" /><inkscape:path-effect
   hide_knot="false"
   vertical="false"
   scale_y_rel="false"
   prop_scale="1"
   bendpath="M 0.00767934,232.5355 H 465.06666"
   lpeversion="1"
   is_visible="true"
   id="path-effect915"
   effect="bend_path" /><inkscape:path-effect
   overflow_perspective="false"
   vertical_mirror="false"
   horizontal_mirror="false"
   deform_type="perspective"
   lpeversion="1"
   is_visible="true"
   id="path-effect911"
   down_right_point="465.06666,465.071"
   down_left_point="0.0076793428,465.071"
   up_right_point="465.06666,6.9607497e-06"
   up_left_point="0.51,6.9607497e-06"
   effect="perspective-envelope" />
	
	
</defs><sodipodi:namedview
   inkscape:current-layer="layer3"
   inkscape:window-maximized="1"
   inkscape:window-y="-6"
   inkscape:window-x="-11"
   inkscape:cy="271.30931"
   inkscape:cx="350.57165"
   inkscape:zoom="2.6698652"
   showgrid="false"
   id="namedview39"
   inkscape:window-height="1586"
   inkscape:window-width="2880"
   inkscape:pageshadow="2"
   inkscape:pageopacity="0"
   guidetolerance="10"
   gridtolerance="10"
   objecttolerance="10"
   borderopacity="1"
   bordercolor="#666666"
   pagecolor="#ffffff" />
<g
   style="display:none"
   inkscape:label="Bottom"
   id="layer4"
   inkscape:groupmode="layer"><rect
     y="-9.6336521e-09"
     x="1.498203"
     height="465.94113"
     width="465.56659"
     id="rect2840"
     style="fill:#b3ff80;fill-opacity:1;stroke:#e20000;stroke-width:0;stroke-miterlimit:4;stroke-dasharray:none;stroke-opacity:1" /></g><g
   style="display:inline"
   inkscape:label="Circle"
   id="layer1"
   inkscape:groupmode="layer" />
<g
   id="g8">
</g>
<g
   id="g10">
</g>
<g
   id="g12">
</g>
<g
   id="g14">
</g>
<g
   id="g16">
</g>
<g
   id="g18">
</g>
<g
   id="g20">
</g>
<g
   id="g22">
</g>
<g
   id="g24">
</g>
<g
   id="g26">
</g>
<g
   id="g28">
</g>
<g
   id="g30">
</g>
<g
   id="g32">
</g>
<g
   id="g34">
</g>
<g
   id="g36">
</g>
<g
   style="display:inline"
   inkscape:label="Guitar"
   id="layer2"
   inkscape:groupmode="layer" /><g
   style="display:inline;opacity:1"
   inkscape:label="Reszta"
   id="layer3"
   inkscape:groupmode="layer"><path
     style="fill:#ff0000;stroke:#e20000;stroke-width:5.3;stroke-linecap:butt;stroke-linejoin:miter;stroke-miterlimit:4;stroke-dasharray:none;stroke-opacity:1"
     d="M 120.37725,348.30612 385.94047,78.466594"
     id="path896" /><path
     style="fill:#ff0000;stroke:#e20000;stroke-width:5.3;stroke-linecap:butt;stroke-linejoin:miter;stroke-miterlimit:4;stroke-dasharray:none;stroke-opacity:1"
     d="M 128.00573,357.41218 393.56895,87.572646"
     id="path900" /><path
     id="path902"
     d="M 112.75201,340.77786 378.31522,70.938333"
     style="fill:#ff0000;stroke:#e20000;stroke-width:5.3;stroke-linecap:butt;stroke-linejoin:miter;stroke-miterlimit:4;stroke-dasharray:none;stroke-opacity:1" /><path
     inkscape:original-d="M 464.423,53.43 C 464.624,52.564 469.134,32.023 451.09,13.978 430.59516,1.8268541 424.02586,3.9502277 413.49193,2.3665079 412.12593,2.6825079 409.022,1.656 408.03,2.647 l -2.88,2.88 c -7.33392,7.504211 -4.70831,4.562418 -10.606,10.606 l -7.72115,8.912966 c -6.90561,7.2965 -1.45551,2.162022 -10.14252,10.142517 l -7.4563,8.581907 c -4.86612,7.565708 -1.56266,3.860581 -8.39767,12.683906 L 347.621,77.237 270.41323,155.92037 c -16.543,-12.764 -47.88355,-23.49041 -81.92655,-5.26741 -22.692,12.115 -24.56266,22.18984 -29.89266,35.80984 -4.247,10.853 -12.02322,23.59011 -23.50222,32.09611 -5.339,3.952 -19.22242,8.44522 -30.63642,10.72022 -28.515003,5.684 -60.263263,9.06703 -85.925263,56.50303 -30.572,56.524 14.479086,99.98284 35.412086,120.93884 l 4.534435,5.36717 c 15.912,15.911 44.101262,43.99361 85.072262,43.99361 12.89,-10e-4 23.32659,-2.60145 36.86159,-9.92545 47.438,-25.661 51.47749,-57.21298 57.16049,-85.72098 2.275,-11.411 4.61456,-24.26241 8.56556,-29.59941 8.504,-11.482 23.49626,-18.1484 34.35026,-22.3974 13.623,-5.333 22.69663,-8.00705 34.80163,-30.69205 18.224,-34.048 7.55457,-62.98549 -5.21243,-79.52849 l 77.735,-80.754 22.461,-11.231 c 9.93364,-7.632187 6.4452,-3.77529 12.083,-9.131 l 7.986,-7.986 c 10.608,-10.607 5.35657,-4.621023 10.608,-10.607 l 7.985,-7.985 c 8.41605,-8.815948 4.13812,-3.967603 10.608,-10.607 l 2.879,-2.879 c 0.991,-0.992 1.686,-2.242 2.002,-3.608 z m -77.75029,59.67862 -86.3643,86.33955 c 24.48747,37.52124 23.25359,49.49583 9.61659,74.97483 -9.501,17.807 -20.58,22.145 -33.407,27.166 -11.365,4.449 -24.246,9.492 -35.32,24.443 -5.949,8.037 -8.219,19.417 -10.846,32.596 -5.387,27.018 -12.091,60.642 -53.334,82.952 -47.683,25.804 -95.949,-14.535 -114.479,-33.064 l -5.968,-5.957 C 38.036,384.004 -2.29,335.704 23.482,288.052 c 22.31,-41.24 55.942,-47.943 82.968,-53.331 13.181,-2.627 24.564,-4.896 32.605,-10.849 14.947,-11.077 19.987,-23.956 24.435,-35.318 5.019,-12.825 9.354,-23.9 27.167,-33.411 26.21364,-17.62291 59.15693,-6.11167 76.153,2.84796 l 3.21059,5.16561 79.89772,-80.503115 19.90692,-30.918733 42.26552,-45.8409565 c 4.118,-0.302 26.10713,2.433415 35.54313,11.8704145 9.46,9.461 12.57544,21.525963 12.27544,25.586963 l 0.27035,7.852365 c -0.93397,2.390627 -4.06761,5.094247 -4.07361,5.100247 -0.007,0.007 -3.49527,4.149803 -4.25028,4.530438 l -4.51709,4.930426 c -5.30556,5.368035 -7.86854,6.200536 -12.63377,11.34688 -4.11313,4.442094 -5.50726,5.576129 -7.03644,7.038455 l -12.43306,13.426231 -28.56271,15.532435"
     inkscape:path-effect="#path-effect2918"
     d="M 464.423,53.43 C 464.624,52.564 469.134,32.023 451.09,13.978 430.59516,1.8268541 424.02586,3.9502277 413.49193,2.3665079 412.12593,2.6825079 409.022,1.656 408.03,2.647 l -2.88,2.88 c -7.33392,7.504211 -4.70831,4.562418 -10.606,10.606 l -7.72115,8.912966 c -6.90561,7.2965 -1.45551,2.162022 -10.14252,10.142517 l -7.4563,8.581907 c -4.86612,7.565708 -1.56266,3.860581 -8.39767,12.683906 L 347.621,77.237 270.41323,155.92037 c -16.543,-12.764 -47.88355,-23.49041 -81.92655,-5.26741 -22.692,12.115 -24.56266,22.18984 -29.89266,35.80984 -4.247,10.853 -12.02322,23.59011 -23.50222,32.09611 -5.339,3.952 -19.22242,8.44522 -30.63642,10.72022 -28.515003,5.684 -60.263263,9.06703 -85.925263,56.50303 -30.572,56.524 14.479086,99.98284 35.412086,120.93884 l 4.534435,5.36717 c 15.912,15.911 44.101262,43.99361 85.072262,43.99361 12.89,-10e-4 23.32659,-2.60145 36.86159,-9.92545 47.438,-25.661 51.47749,-57.21298 57.16049,-85.72098 2.275,-11.411 4.61456,-24.26241 8.56556,-29.59941 8.504,-11.482 23.49626,-18.1484 34.35026,-22.3974 13.623,-5.333 22.69663,-8.00705 34.80163,-30.69205 18.224,-34.048 7.55457,-62.98549 -5.21243,-79.52849 l 77.735,-80.754 22.461,-11.231 c 9.93364,-7.632187 6.4452,-3.77529 12.083,-9.131 l 7.986,-7.986 c 10.608,-10.607 5.35657,-4.621023 10.608,-10.607 l 7.985,-7.985 c 8.41605,-8.815948 4.13812,-3.967603 10.608,-10.607 l 2.879,-2.879 c 0.991,-0.992 1.686,-2.242 2.002,-3.608 z m -77.75029,59.67862 -86.3643,86.33955 c 24.48747,37.52124 23.25359,49.49583 9.61659,74.97483 -9.501,17.807 -20.58,22.145 -33.407,27.166 -11.365,4.449 -24.246,9.492 -35.32,24.443 -5.949,8.037 -8.219,19.417 -10.846,32.596 -5.387,27.018 -12.091,60.642 -53.334,82.952 -47.683,25.804 -95.949,-14.535 -114.479,-33.064 l -5.968,-5.957 C 38.036,384.004 -2.29,335.704 23.482,288.052 c 22.31,-41.24 55.942,-47.943 82.968,-53.331 13.181,-2.627 24.564,-4.896 32.605,-10.849 14.947,-11.077 19.987,-23.956 24.435,-35.318 5.019,-12.825 9.354,-23.9 27.167,-33.411 26.21364,-17.62291 59.15693,-6.11167 76.153,2.84796 l 3.21059,5.16561 79.89772,-80.503115 19.90692,-30.918733 42.26552,-45.8409565 c 4.118,-0.302 26.10713,2.433415 35.54313,11.8704145 9.46,9.461 12.57544,21.525963 12.27544,25.586963 l 0.27035,7.852365 c -0.93397,2.390627 -4.06761,5.094247 -4.07361,5.100247 -0.007,0.007 -3.49527,4.149803 -4.25028,4.530438 l -4.51709,4.930426 c -5.30556,5.368035 -7.86854,6.200536 -12.63377,11.34688 -4.11313,4.442094 -5.50726,5.576129 -7.03644,7.038455 l -12.43306,13.426231 -28.56271,15.532435"
     id="path4"
     sodipodi:nodetypes="cccccccccccccccccccccccsccccccccccccccccccccccccccccccsccsccsccc"
     style="fill:#552200;fill-opacity:0.4;stroke:#00b800;stroke-width:2;stroke-miterlimit:4;stroke-dasharray:none;stroke-opacity:1" /><path
     d="m 155.6799,19.814651 c -1.12169,3.456499 -3.28006,6.406308 -5.40351,9.303113 -2.58535,3.580135 -5.24994,7.10349 -7.69554,10.781811 -1.63079,2.576215 -3.18601,5.211487 -4.36559,8.030474 -0.91352,2.183149 -1.15846,3.164108 -1.86992,5.446046 -0.93224,3.253391 -1.84339,6.576774 -1.84916,9.986413 -0.003,1.8564 0.12073,2.252794 0.38537,4.048099 1.19003,4.601767 4.34503,8.216477 7.27495,11.819742 2.41563,2.77192 4.79511,5.58457 7.03191,8.50424 0.19817,0.258666 3.00131,4.083661 3.21635,4.376871 3.33906,4.51634 6.23572,9.31303 8.82536,14.29015 1.63435,3.17195 3.03902,6.44937 4.42614,9.73388 0.48902,1.15793 1.00561,2.30461 1.46692,3.47386 0.74694,1.89323 1.85878,5.11795 2.54309,7.06833 2.3471,6.94586 3.86103,14.15023 5.04819,21.37556 0.74482,5.59238 1.41789,11.19598 1.88326,16.81901 0.54881,4.26047 1.33981,8.48357 1.96453,12.7323 0.51509,3.85902 0.5893,7.75739 0.64543,11.64459 -0.0408,2.99321 0.14351,6.00063 -0.1057,8.98657 -0.22077,2.30476 -0.82164,4.55665 -1.42306,6.78707 -0.99749,2.86995 -2.36594,5.59309 -3.80392,8.26397 -1.41851,2.91633 -2.93534,5.78279 -4.34303,8.7044 -1.19866,2.44701 -2.48645,4.8348 -4.04709,7.07106 -0.92583,1.3118 -1.88643,2.62716 -3.06073,3.73317 -0.41555,0.39139 -1.34406,1.09192 -1.79803,1.44286 0.73473,-0.20578 -2.34231,1.48224 -1.74609,1.12887 1.26747,-0.7512 5.09266,-2.96601 3.81936,-2.22475 -3.16355,1.84169 -4.66908,2.60326 -7.12483,4.34709 -1.44235,1.34219 -2.82034,2.78428 -4.06469,4.31392 -1.15936,1.39411 -2.31341,2.78904 -3.54118,4.12426 -1.4595,1.42102 -2.3115,3.24706 -3.233,5.02381 -0.38991,0.90247 -0.73236,1.80709 -1.23687,2.65312 0,0 5.06616,-2.2668 5.06616,-2.2668 v 0 c 0.44584,-0.86973 0.78984,-1.77987 1.21187,-2.66088 0.89381,-1.76249 1.83564,-3.49195 3.27712,-4.88245 1.22252,-1.34561 2.36952,-2.75356 3.53528,-4.14805 1.27432,-1.48086 2.59297,-2.95847 4.12085,-4.18174 0.25787,-0.18044 0.51352,-0.36409 0.7736,-0.54132 0.26583,-0.18114 1.08631,-0.68795 0.80401,-0.53372 -1.30634,0.71371 -5.1676,2.9581 -3.87861,2.21351 2.43664,-1.40753 5.0811,-2.65495 7.32246,-4.41072 0.68999,-0.55936 1.12759,-0.88446 1.75878,-1.51763 1.14578,-1.14937 2.1038,-2.46776 3.01722,-3.80317 1.52443,-2.27657 2.81876,-4.68506 4.01636,-7.1482 1.39497,-2.90589 2.86135,-5.77604 4.30312,-8.6589 1.46047,-2.70873 2.85196,-5.47912 3.81259,-8.40983 0.58653,-2.26141 1.20444,-4.53536 1.3699,-6.87449 0.18912,-2.9958 0.0137,-6.00342 0.0303,-9.0032 -0.0727,-3.90805 -0.17422,-7.82743 -0.68237,-11.70737 -0.66102,-4.22635 -1.45755,-8.43186 -1.99382,-12.67717 -0.49623,-5.61947 -1.23815,-11.21501 -2.00536,-16.80304 -0.61303,-3.60764 -1.34147,-7.16706 -2.15208,-10.73586 -0.82103,-3.61469 -1.6752,-7.22647 -2.95212,-10.71442 -0.32648,-0.90661 -2.26562,-6.30765 -2.57126,-7.08698 -0.45899,-1.17037 -0.97491,-2.31761 -1.46225,-3.47646 -1.38823,-3.30109 -2.78901,-6.59724 -4.37584,-9.80964 -0.44832,-0.87393 -0.88012,-1.75653 -1.34495,-2.62179 -2.20232,-4.09948 -4.83117,-7.94908 -7.49979,-11.75411 -3.26336,-4.42174 -6.60409,-8.791359 -10.23048,-12.925003 -2.90391,-3.499563 -5.97789,-7.064415 -7.0967,-11.584324 -0.24887,-1.706646 -0.3805,-2.174146 -0.36886,-3.937608 0.0222,-3.357445 0.93955,-6.626085 1.84605,-9.831553 0.72737,-2.239473 0.99586,-3.256813 1.92635,-5.394273 1.2214,-2.805738 2.82869,-5.417493 4.47082,-7.990719 2.44455,-3.656343 5.07704,-7.180015 7.65911,-10.739296 2.1792,-2.962823 4.29559,-6.015316 5.49258,-9.529804 0,0 -5.01898,2.357101 -5.01898,2.357101 z"
     id="path2838"
     style="display:inline;fill:#552200;fill-opacity:1;stroke:#e20000;stroke-width:5.3;stroke-miterlimit:4;stroke-dasharray:none;stroke-opacity:1" /><path
     style="display:inline;fill:#501616;stroke:#00b800;stroke-width:0;stroke-miterlimit:4;stroke-dasharray:none;stroke-opacity:1;fill-opacity:0.40000001"
     id="path2"
     d="m 93.53652,324.63495 c -1.88751,-1.68403 -3.01373,-1.04043 -2.51413,1.44098 0.50024,2.48198 2.43589,5.85918 4.32421,7.54464 l 45.77224,40.85504 c 0.94407,0.8423 1.69734,1.10227 2.15243,0.84144 0.45486,-0.2607 0.61152,-1.04221 0.36193,-2.28255 -0.50024,-2.48198 -2.43589,-5.85919 -4.32421,-7.54464 z" /><path
     d="m 116.79931,32.26273 c -3.13589,5.146439 -6.70116,9.419055 -10.12336,13.974389 -3.59737,4.79524 -7.31065,9.486847 -10.19309,15.624378 -0.45052,0.959279 -0.84088,1.997866 -1.26132,2.996808 -0.93109,2.614897 -1.75532,5.368338 -2.25874,8.32371 -0.5077,2.980488 -0.68071,6.043711 -0.84772,9.119844 -0.24614,4.805208 -0.0838,9.628011 0.5608,14.326361 0.3381,2.46453 0.75157,4.46121 1.20908,6.85391 0.96476,4.01644 2.14558,7.92917 3.56708,11.52935 0.84898,2.1502 1.54309,3.57917 2.48622,5.63008 2.5938,5.42261 5.46939,10.41472 8.32898,15.41644 2.66222,4.17051 5.29504,8.37748 7.79732,12.83285 3.26116,5.73961 5.37724,12.97533 7.4183,20.1002 2.50039,8.00362 3.95589,16.73324 5.59779,25.31341 1.2478,6.1176 2.01909,12.43973 2.39064,18.87941 0.35758,4.98892 -0.35348,9.82245 -1.36187,14.45816 -0.58506,2.18248 -1.12008,4.44093 -1.87949,6.47054 -0.73749,1.97104 -1.69021,3.67443 -2.61267,5.38324 -1.42503,2.47329 -3.1283,4.37401 -4.82546,6.23824 -0.46629,0.51218 -1.90317,1.94187 -1.42194,1.47242 1.10719,-1.08009 2.20008,-2.2031 3.30012,-3.30464 -0.40002,0.36853 -0.79751,0.74533 -1.20007,1.10558 -1.15017,1.02931 -2.3287,1.9534 -3.46931,3.0152 -2.26086,2.10465 -4.44709,4.43873 -6.66437,6.67657 -1.10147,1.44135 -0.56793,0.69974 -1.60187,2.22218 0,0 5.11386,-3.55095 5.11386,-3.55095 v 0 c 1.04539,-1.44646 0.50609,-0.74688 1.61907,-2.0961 -1.25349,1.22518 -2.50597,2.45341 -3.76045,3.67552 -0.34033,0.33156 0.6769,-0.67447 1.01796,-1.00378 1.53743,-1.48441 3.15599,-2.68401 4.70379,-4.13617 3.30265,-3.28312 6.94783,-6.49363 10.02867,-10.54707 0.99775,-1.31273 1.31778,-1.9294 2.2106,-3.41506 0.68293,-1.31211 1.17825,-2.20276 1.78939,-3.62498 1.11914,-2.60441 1.8903,-5.57577 2.60373,-8.55583 0.98125,-4.78159 1.64894,-9.73994 1.25234,-14.842 -0.42599,-6.47718 -1.26095,-12.82201 -2.53366,-18.97163 -1.02553,-5.36713 -0.52606,-2.66938 -1.49798,-8.09346 -1.13177,-5.9351 -2.56233,-11.70821 -4.15769,-17.3141 -2.07636,-7.18145 -4.16164,-14.58014 -7.40169,-20.45468 -2.52843,-4.42456 -5.16066,-8.64496 -7.83897,-12.79957 -2.87545,-4.92784 -5.68448,-9.98113 -8.30871,-15.3112 -0.90723,-1.99966 -1.61325,-3.4827 -2.43581,-5.57067 -1.39431,-3.53931 -2.56124,-7.37679 -3.51349,-11.31998 -0.43331,-2.23521 -0.89044,-4.42078 -1.19731,-6.72356 -0.61729,-4.632043 -0.7101,-9.40122 -0.45334,-14.121128 0.155,-2.451218 0.19388,-3.684833 0.49395,-6.07375 0.49133,-3.911638 1.4349,-7.55605 2.7085,-10.898635 0.41873,-0.965114 0.81007,-1.96731 1.25619,-2.895361 2.90198,-6.036876 6.61256,-10.656284 10.17904,-15.433293 2.24409,-2.977372 4.54669,-5.8408 6.76562,-8.872708 2.54702,-3.4802 0.73694,-1.144114 2.76695,-4.105029 0.26732,-0.389916 0.55271,-0.741546 0.82907,-1.112301 0,0 -5.17468,3.508845 -5.17468,3.508845 z"
     id="path2834"
     style="fill:#803300;fill-opacity:1;stroke:#e20000;stroke-width:6.95388;stroke-miterlimit:4;stroke-dasharray:none;stroke-opacity:1" /><path
     d="m 56.851762,36.289527 c -2.302169,3.792526 -3.930291,8.432518 -5.588498,13.005796 -1.857261,5.688598 -4.013508,11.082176 -5.960593,16.684749 -1.092199,3.535596 -2.380028,6.986741 -3.261031,10.695612 -0.372043,1.566245 -0.587078,3.085318 -0.846274,4.703409 -0.60009,5.586446 -0.646786,11.306847 -0.495578,16.961217 0.210612,4.12687 0.817411,8.2475 1.858008,12.02505 0.534432,1.94008 1.345139,4.22285 1.976435,6.07379 1.988428,5.21339 4.152102,10.25884 6.439426,15.1252 2.204778,4.29881 4.229574,8.83519 6.487332,13.05733 3.042509,5.3526 5.594534,11.37133 8.169254,17.33845 1.779949,4.23102 3.583006,8.43764 5.215666,12.83222 3.950407,10.63319 -1.769316,-4.43247 2.282324,6.19036 2.627672,5.89803 4.098362,12.71494 5.238129,19.72011 0.531772,5.29184 0.726806,10.77269 0.393371,16.12494 -0.169449,2.71997 -0.491335,4.89172 -0.833076,7.54115 -0.446749,2.77684 -0.940571,5.53387 -1.470763,8.2701 -0.222078,1.1461 -0.4827,2.52093 -0.809957,3.61265 -0.16499,0.55041 -0.372405,1.06297 -0.558607,1.59445 -1.156896,3.09477 -2.468132,6.01437 -3.823457,8.87514 -0.267742,0.5129 -0.512849,1.06084 -0.803227,1.5387 -0.637356,1.04889 -1.355209,1.95437 -2.02481,2.94652 -0.936466,1.38758 -1.856138,2.77927 -2.837958,4.07816 -0.769376,1.20993 -1.723013,2.12096 -2.407788,3.48315 -0.233718,0.46493 -0.406565,1.00538 -0.609847,1.50807 0,0 5.055243,-3.62305 5.055243,-3.62305 v 0 c 0.217316,-0.45097 0.413865,-0.93173 0.651946,-1.3529 0.724155,-1.28106 1.6356,-2.235 2.411599,-3.41979 0.955272,-1.33119 1.875675,-2.71911 2.805371,-4.09903 0.45829,-0.68022 1.579437,-2.31124 2.01197,-3.07182 0.282096,-0.49606 0.527303,-1.04637 0.790955,-1.56956 1.362787,-2.88944 2.688957,-5.84244 3.800527,-9.01961 0.178008,-0.56695 0.376067,-1.11779 0.534024,-1.70084 0.28457,-1.05038 0.559421,-2.57364 0.756197,-3.65629 0.498856,-2.74467 0.969465,-5.50523 1.380705,-8.28976 0.3139,-2.66968 0.61577,-4.9062 0.76639,-7.63947 0.30017,-5.44709 0.12651,-11.02154 -0.44317,-16.39801 -1.182576,-7.06912 -2.642093,-14.00128 -5.31549,-19.95231 -2.448209,-6.41669 -4.801128,-12.93719 -7.513842,-19.06666 -2.586114,-5.98389 -5.155119,-12.02138 -8.1808,-17.42807 -2.213386,-4.25936 -4.232605,-8.78005 -6.442643,-13.04624 -2.290693,-4.80594 -4.44455,-9.8132 -6.433566,-14.97276 -0.658777,-1.9412 -1.374164,-3.93943 -1.920784,-5.9805 -0.992594,-3.70634 -1.600648,-7.71906 -1.776156,-11.75793 -0.113118,-5.59199 -0.06199,-11.255596 0.617639,-16.7561 0.321049,-1.931145 0.407098,-2.661045 0.873287,-4.556305 0.899554,-3.657041 2.106996,-7.112977 3.233036,-10.581526 1.971912,-5.573931 4.10119,-10.993234 5.964709,-16.672003 1.676384,-4.593499 3.399094,-9.170722 5.7683,-12.893682 0,0 -5.123928,3.517893 -5.123928,3.517893 z"
     id="path2836"
     style="fill:#803300;fill-opacity:1;stroke:#e20000;stroke-width:6.82344;stroke-miterlimit:4;stroke-dasharray:none;stroke-opacity:1" /></g></svg>
