<?xml version="1.0" encoding="utf-8"?>
<!-- Generator: Adobe Illustrator 25.2.1, SVG Export Plug-In . SVG Version: 6.00 Build 0)  -->
<svg version="1.1" id="Warstwa_1" xmlns="http://www.w3.org/2000/svg" xmlns:xlink="http://www.w3.org/1999/xlink" x="0px" y="0px"
	 viewBox="0 0 100 100" style="enable-background:new 0 0 100 100;" xml:space="preserve">
<style type="text/css">
	.st0{fill:url(#SVGID_1_);}
	.st1{fill:#3C3C3B;}
	.st2{fill:#E30613;stroke:url(#SVGID_2_);stroke-width:4;stroke-miterlimit:10;}
</style>
<linearGradient id="SVGID_1_" gradientUnits="userSpaceOnUse" x1="98.5973" y1="98.5973" x2="4.9299" y2="4.9299">
	<stop  offset="0.1129" style="stop-color:#19622C"/>
	<stop  offset="0.5039" style="stop-color:#458745"/>
	<stop  offset="0.7974" style="stop-color:#7BB47C"/>
	<stop  offset="1" style="stop-color:#ACD4A8"/>
</linearGradient>
<path class="st0" d="M95.2,100H4.8C2.1,100,0,97.9,0,95.2V4.8C0,2.1,2.1,0,4.8,0h90.4c2.6,0,4.8,2.1,4.8,4.8v90.4
	C100,97.9,97.9,100,95.2,100z"/>
<path d="M2.8,78.6c-0.7,0-1.4-0.3-1.9-0.8c-1.1-1.1-1.1-2.8,0-3.9L73,0.8c1.1-1.1,2.8-1.1,3.9,0c1.1,1.1,1.1,2.8,0,3.9L4.8,77.8
	C4.2,78.3,3.5,78.6,2.8,78.6z"/>
<path d="M25,100c-0.7,0-1.4-0.3-1.9-0.8c-1.1-1.1-1.1-2.8,0-3.9l72.2-73.1c1.1-1.1,2.8-1.1,3.9,0c1.1,1.1,1.1,2.8,0,3.9L27,99.2
	C26.4,99.7,25.7,100,25,100z"/>
<path d="M13.9,88.5c-0.7,0-1.4-0.3-1.9-0.8c-1.1-1.1-1.1-2.8,0-3.9l72.2-73.1c1.1-1.1,2.8-1.1,3.9,0c1.1,1.1,1.1,2.8,0,3.9
	L15.9,87.7C15.3,88.3,14.6,88.5,13.9,88.5z"/>
<circle class="st1" cx="50" cy="49.8" r="31.4"/>
<linearGradient id="SVGID_2_" gradientUnits="userSpaceOnUse" x1="27.7733" y1="49.8763" x2="75.0469" y2="49.8763">
	<stop  offset="0" style="stop-color:#FFEF26"/>
	<stop  offset="5.948725e-02" style="stop-color:#FFE000"/>
	<stop  offset="0.1303" style="stop-color:#FFD300"/>
	<stop  offset="0.2032" style="stop-color:#FECB00"/>
	<stop  offset="0.2809" style="stop-color:#FDC800"/>
	<stop  offset="0.6685" style="stop-color:#F18F34"/>
	<stop  offset="0.8876" style="stop-color:#E95F32"/>
	<stop  offset="1" style="stop-color:#E3312D"/>
</linearGradient>
<path class="st2" d="M44.4,78.6c-6.6-0.7-11.7-4.5-13.8-9c0,0-2.7-5.7,1.4-12.4c0.3-0.5,0.5-0.8,0.7-1c2.2-3.2,2.7-2.4,5.2-5.9
	c3.7-5.1,0.5-11.5,0.5-11.5s2.2,1.4,3.6,2.9c2,2.2,3,3.3,3,3.3s1.3-3.2,1-6.1c-0.6-5.3-3.7-9.2-4.5-10.2c-2.2-2.6-4.2-4.4-4.2-4.4
	s2.7,1,4,1.8c7.7,4.3,11.6,6.4,14.4,9c3,2.8,6.5,6,7.7,10.9c1.5,6,0.1,11.3,0.1,11.3s3.6-3,4.3-4.1c0.8-1.1,1.8-2.6,1.9-4.7
	c0.1-1,0.1-2,0.1-2s1.1,1.9,1.3,2.3c2.5,6.2,1.7,12.1,1.7,12.1c-0.4,2.8-0.7,7.5-4.7,11.7c-2,2.8-10.8,6.2-10.7,5.5
	c-0.5,0.8-7.9-6.6-7.3-12.8c0.5-4.7,1.5-8.4,1.5-8.4s-4.5,2-6.6,4.5c-0.9,1.1-3.8,4.7-3.2,9.8C42.3,74.4,43.5,77.4,44.4,78.6z"/>
<image style="overflow:visible;" width="23" height="30" xlink:href="8D7C558A.jpg"  transform="matrix(1 0 0 1 -93.3638 4.5389)">
</image>
</svg>
